# xmcd
# Copyright (C) 1995-1998 Ti Kan
#
# Track frame offsets:
#       150
#       16852
#       29581
#       46517
#       51294
#       66586
#       81986
#       97149
#       113826
#       128492
#       145408
#       161998
#
# Disc length: 2369 seconds
#
# Revision: 0
# Processed by: cddbd v1.5.2PL0 Copyright (c) Steve Scherf et al.
# Submitted via: CD-Import v1.0
#
DISCID=a8093f0c
DTITLE=Parashout - Popart ?
DYEAR=1900
DGENRE=
TTITLE0=Dead Lies
TTITLE1=Go Away Bitch
TTITLE2=Demons Ville
TTITLE3=Android Friend
TTITLE4=Mr. Robato
TTITLE5=Boobtrack
TTITLE6=The Desert
TTITLE7=Japanese Girl
TTITLE8=Big Blue
TTITLE9=The Macho Song
TTITLE10=Cyber Electric
TTITLE11=Endomorphadon
EXTD=
EXTT0=
EXTT1=
EXTT2=
EXTT3=
EXTT4=
EXTT5=
EXTT6=
EXTT7=
EXTT8=
EXTT9=
EXTT10=
EXTT11=
PLAYORDER=
